<svg xmlns="http://www.w3.org/2000/svg" xmlns:xlink="http://www.w3.org/1999/xlink" width="500" zoomAndPan="magnify" viewBox="0 0 375 144.749998" height="193" preserveAspectRatio="xMidYMid meet" version="1.0"><defs><g/><clipPath id="0f7aaca7c6"><path d="M 4.105469 7.703125 L 135.722656 7.703125 L 135.722656 136.796875 L 4.105469 136.796875 Z M 4.105469 7.703125 " clip-rule="nonzero"/></clipPath><clipPath id="0e3013c5ac"><path d="M 37.796875 7.703125 L 101.808594 7.703125 C 110.742188 7.703125 119.3125 11.25 125.632812 17.570312 C 131.949219 23.886719 135.5 32.457031 135.5 41.394531 L 135.5 103.105469 C 135.5 112.042969 131.949219 120.613281 125.632812 126.929688 C 119.3125 133.25 110.742188 136.796875 101.808594 136.796875 L 37.796875 136.796875 C 28.859375 136.796875 20.289062 133.25 13.972656 126.929688 C 7.652344 120.613281 4.105469 112.042969 4.105469 103.105469 L 4.105469 41.394531 C 4.105469 32.457031 7.652344 23.886719 13.972656 17.570312 C 20.289062 11.25 28.859375 7.703125 37.796875 7.703125 Z M 37.796875 7.703125 " clip-rule="nonzero"/></clipPath><clipPath id="3d8d7b828a"><path d="M 4.105469 7.703125 L 135.40625 7.703125 L 135.40625 136.847656 L 4.105469 136.847656 Z M 4.105469 7.703125 " clip-rule="nonzero"/></clipPath><clipPath id="fc524bf2ff"><path d="M 37.796875 7.703125 L 101.804688 7.703125 C 110.742188 7.703125 119.3125 11.25 125.628906 17.570312 C 131.949219 23.886719 135.496094 32.457031 135.496094 41.394531 L 135.496094 103.105469 C 135.496094 112.039062 131.949219 120.609375 125.628906 126.929688 C 119.3125 133.246094 110.742188 136.796875 101.804688 136.796875 L 37.796875 136.796875 C 28.859375 136.796875 20.289062 133.246094 13.972656 126.929688 C 7.652344 120.609375 4.105469 112.039062 4.105469 103.105469 L 4.105469 41.394531 C 4.105469 32.457031 7.652344 23.886719 13.972656 17.570312 C 20.289062 11.25 28.859375 7.703125 37.796875 7.703125 Z M 37.796875 7.703125 " clip-rule="nonzero"/></clipPath></defs><g fill="#353535" fill-opacity="1"><g transform="translate(155.618827, 101.449781)"><g><path d="M 56.90625 -60.15625 L 36.078125 -19.890625 L 36.078125 0 L 21.421875 0 L 21.421875 -19.890625 L 0.59375 -60.15625 L 17.21875 -60.15625 L 28.875 -34.96875 L 40.453125 -60.15625 Z M 56.90625 -60.15625 "/></g></g></g><g fill="#353535" fill-opacity="1"><g transform="translate(219.639478, 101.449781)"><g><path d="M 12.6875 -52.796875 C 10.113281 -52.796875 8.007812 -53.550781 6.375 -55.0625 C 4.75 -56.570312 3.9375 -58.441406 3.9375 -60.671875 C 3.9375 -62.960938 4.75 -64.863281 6.375 -66.375 C 8.007812 -67.882812 10.113281 -68.640625 12.6875 -68.640625 C 15.195312 -68.640625 17.265625 -67.882812 18.890625 -66.375 C 20.523438 -64.863281 21.34375 -62.960938 21.34375 -60.671875 C 21.34375 -58.441406 20.523438 -56.570312 18.890625 -55.0625 C 17.265625 -53.550781 15.195312 -52.796875 12.6875 -52.796875 Z M 19.96875 -47.828125 L 19.96875 0 L 5.3125 0 L 5.3125 -47.828125 Z M 19.96875 -47.828125 "/></g></g></g><g fill="#353535" fill-opacity="1"><g transform="translate(251.435574, 101.449781)"><g><path d="M 19.96875 -41.046875 C 21.394531 -43.273438 23.363281 -45.078125 25.875 -46.453125 C 28.394531 -47.828125 31.335938 -48.515625 34.703125 -48.515625 C 38.648438 -48.515625 42.222656 -47.515625 45.421875 -45.515625 C 48.617188 -43.515625 51.144531 -40.65625 53 -36.9375 C 54.863281 -33.226562 55.796875 -28.914062 55.796875 -24 C 55.796875 -19.082031 54.863281 -14.753906 53 -11.015625 C 51.144531 -7.273438 48.617188 -4.390625 45.421875 -2.359375 C 42.222656 -0.328125 38.648438 0.6875 34.703125 0.6875 C 31.390625 0.6875 28.460938 0.00390625 25.921875 -1.359375 C 23.378906 -2.734375 21.394531 -4.507812 19.96875 -6.6875 L 19.96875 22.796875 L 5.3125 22.796875 L 5.3125 -47.828125 L 19.96875 -47.828125 Z M 40.875 -24 C 40.875 -27.65625 39.859375 -30.523438 37.828125 -32.609375 C 35.804688 -34.691406 33.3125 -35.734375 30.34375 -35.734375 C 27.425781 -35.734375 24.953125 -34.675781 22.921875 -32.5625 C 20.898438 -30.445312 19.890625 -27.5625 19.890625 -23.90625 C 19.890625 -20.25 20.898438 -17.363281 22.921875 -15.25 C 24.953125 -13.132812 27.425781 -12.078125 30.34375 -12.078125 C 33.25 -12.078125 35.726562 -13.148438 37.78125 -15.296875 C 39.84375 -17.441406 40.875 -20.34375 40.875 -24 Z M 40.875 -24 "/></g></g></g><g fill="#353535" fill-opacity="1"><g transform="translate(316.141846, 101.449781)"><g><path d="M 50.390625 -24.6875 C 50.390625 -23.3125 50.304688 -21.878906 50.140625 -20.390625 L 16.96875 -20.390625 C 17.195312 -17.421875 18.15625 -15.148438 19.84375 -13.578125 C 21.53125 -12.015625 23.597656 -11.234375 26.046875 -11.234375 C 29.703125 -11.234375 32.25 -12.773438 33.6875 -15.859375 L 49.28125 -15.859375 C 48.476562 -12.710938 47.035156 -9.878906 44.953125 -7.359375 C 42.867188 -4.847656 40.253906 -2.878906 37.109375 -1.453125 C 33.960938 -0.0234375 30.445312 0.6875 26.5625 0.6875 C 21.882812 0.6875 17.71875 -0.3125 14.0625 -2.3125 C 10.40625 -4.3125 7.546875 -7.164062 5.484375 -10.875 C 3.429688 -14.59375 2.40625 -18.9375 2.40625 -23.90625 C 2.40625 -28.882812 3.414062 -33.226562 5.4375 -36.9375 C 7.46875 -40.65625 10.3125 -43.515625 13.96875 -45.515625 C 17.625 -47.515625 21.820312 -48.515625 26.5625 -48.515625 C 31.195312 -48.515625 35.3125 -47.539062 38.90625 -45.59375 C 42.507812 -43.65625 45.320312 -40.882812 47.34375 -37.28125 C 49.375 -33.675781 50.390625 -29.476562 50.390625 -24.6875 Z M 35.390625 -28.546875 C 35.390625 -31.054688 34.53125 -33.050781 32.8125 -34.53125 C 31.101562 -36.019531 28.960938 -36.765625 26.390625 -36.765625 C 23.941406 -36.765625 21.875 -36.050781 20.1875 -34.625 C 18.5 -33.195312 17.457031 -31.171875 17.0625 -28.546875 Z M 35.390625 -28.546875 "/></g></g></g><g clip-path="url(#0f7aaca7c6)"><g clip-path="url(#0e3013c5ac)"><path fill="#353535" d="M 4.105469 7.703125 L 135.722656 7.703125 L 135.722656 136.796875 L 4.105469 136.796875 Z M 4.105469 7.703125 " fill-opacity="1" fill-rule="nonzero"/></g></g><g clip-path="url(#3d8d7b828a)"><g clip-path="url(#fc524bf2ff)"><path stroke-linecap="butt" transform="matrix(0.269613, 0, 0, 0.269613, 4.10469, 7.701925)" fill="none" stroke-linejoin="miter" d="M 124.965209 0.00445013 L 362.371882 0.00445013 C 395.521307 0.00445013 427.308823 13.159904 450.736541 36.60211 C 474.178748 60.029828 487.334201 91.817345 487.334201 124.966769 L 487.334201 353.854273 C 487.334201 386.989209 474.178748 418.776725 450.736541 442.218932 C 427.308823 465.64665 395.521307 478.816592 362.371882 478.816592 L 124.965209 478.816592 C 91.815784 478.816592 60.028268 465.64665 36.60055 442.218932 C 13.158343 418.776725 0.00288958 386.989209 0.00288958 353.854273 L 0.00288958 124.966769 C 0.00288958 91.817345 13.158343 60.029828 36.60055 36.60211 C 60.028268 13.159904 91.815784 0.00445013 124.965209 0.00445013 Z M 124.965209 0.00445013 " stroke="#353535" stroke-width="27.769735" stroke-opacity="1" stroke-miterlimit="4"/></g></g><g fill="#ffffff" fill-opacity="1"><g transform="translate(32.385314, 111.074415)"><g><path d="M 74.046875 -78.28125 L 46.953125 -25.875 L 46.953125 0 L 27.875 0 L 27.875 -25.875 L 0.78125 -78.28125 L 22.421875 -78.28125 L 37.578125 -45.5 L 52.640625 -78.28125 Z M 74.046875 -78.28125 "/></g></g></g><path stroke-linecap="butt" transform="matrix(0.269613, 0, 0, 0.269613, 2.441473, 19.406156)" fill="none" stroke-linejoin="miter" d="M 385.724022 49.681019 L 285.145654 244.071678 L 285.145654 339.999274 L 214.471313 339.999274 L 214.471313 244.071678 L 113.994365 49.681019 L 194.173086 49.681019 L 250.416996 171.267544 L 306.255231 49.681019 Z M 385.724022 49.681019 " stroke="#ffffff" stroke-width="9.047763" stroke-opacity="1" stroke-miterlimit="4"/></svg>