<svg xmlns="http://www.w3.org/2000/svg" xmlns:xlink="http://www.w3.org/1999/xlink" width="500" zoomAndPan="magnify" viewBox="0 0 375 374.999991" height="500" preserveAspectRatio="xMidYMid meet" version="1.0"><defs><g/><clipPath id="5f3a1a8d90"><path d="M 4.746094 7.941406 L 370.875 7.941406 L 370.875 367.058594 L 4.746094 367.058594 Z M 4.746094 7.941406 " clip-rule="nonzero"/></clipPath><clipPath id="c87b3fdbdf"><path d="M 72.246094 7.941406 L 302.753906 7.941406 C 340.035156 7.941406 370.253906 38.164062 370.253906 75.441406 L 370.253906 299.558594 C 370.253906 336.835938 340.035156 367.058594 302.753906 367.058594 L 72.246094 367.058594 C 34.964844 367.058594 4.746094 336.835938 4.746094 299.558594 L 4.746094 75.441406 C 4.746094 38.164062 34.964844 7.941406 72.246094 7.941406 Z M 72.246094 7.941406 " clip-rule="nonzero"/></clipPath><clipPath id="6bdb37bce3"><path d="M 4.746094 7.941406 L 369.996094 7.941406 L 369.996094 367.191406 L 4.746094 367.191406 Z M 4.746094 7.941406 " clip-rule="nonzero"/></clipPath><clipPath id="39fbb6a00d"><path d="M 72.246094 7.941406 L 302.75 7.941406 C 340.03125 7.941406 370.25 38.160156 370.25 75.441406 L 370.25 299.550781 C 370.25 336.832031 340.03125 367.050781 302.75 367.050781 L 72.246094 367.050781 C 34.964844 367.050781 4.746094 336.832031 4.746094 299.550781 L 4.746094 75.441406 C 4.746094 38.160156 34.964844 7.941406 72.246094 7.941406 Z M 72.246094 7.941406 " clip-rule="nonzero"/></clipPath></defs><g clip-path="url(#5f3a1a8d90)"><g clip-path="url(#c87b3fdbdf)"><path fill="#353535" d="M 4.746094 7.941406 L 370.875 7.941406 L 370.875 367.058594 L 4.746094 367.058594 Z M 4.746094 7.941406 " fill-opacity="1" fill-rule="nonzero"/></g></g><g clip-path="url(#6bdb37bce3)"><g clip-path="url(#39fbb6a00d)"><path stroke-linecap="butt" transform="matrix(0.75, 0, 0, 0.75, 4.746185, 7.941521)" fill="none" stroke-linejoin="miter" d="M 89.999884 -0.000152678 L 397.338446 -0.000152678 C 447.046783 -0.000152678 487.338452 40.291517 487.338452 89.999853 L 487.338452 388.812373 C 487.338452 438.520709 447.046783 478.812379 397.338446 478.812379 L 89.999884 478.812379 C 40.291548 478.812379 -0.000121544 438.520709 -0.000121544 388.812373 L -0.000121544 89.999853 C -0.000121544 40.291517 40.291548 -0.000152678 89.999884 -0.000152678 Z M 89.999884 -0.000152678 " stroke="#353535" stroke-width="10" stroke-opacity="1" stroke-miterlimit="4"/></g></g><g fill="#f7f7f7" fill-opacity="1"><g transform="translate(83.41637, 295.499981)"><g><path d="M 205.96875 -217.765625 L 130.59375 -71.96875 L 130.59375 0 L 77.546875 0 L 77.546875 -71.96875 L 2.171875 -217.765625 L 62.34375 -217.765625 L 104.53125 -126.5625 L 146.421875 -217.765625 Z M 205.96875 -217.765625 "/></g></g></g><path stroke-linecap="butt" transform="matrix(0.75, 0, 0, 0.75, 0.1195, 40.499997)" fill="none" stroke-linejoin="miter" d="M 385.726108 49.687507 L 285.147977 244.067728 L 285.147977 340.000026 L 214.465681 340.000026 L 214.465681 244.067728 L 113.991716 49.687507 L 194.168804 49.687507 L 250.4136 171.26564 L 306.257353 49.687507 Z M 385.726108 49.687507 " stroke="#f7f7f7" stroke-width="9.047763" stroke-opacity="1" stroke-miterlimit="4"/></svg>