<svg xmlns="http://www.w3.org/2000/svg" xmlns:xlink="http://www.w3.org/1999/xlink" width="500" zoomAndPan="magnify" viewBox="0 0 375 144.749998" height="193" preserveAspectRatio="xMidYMid meet" version="1.0"><defs><g/><clipPath id="44e6f5da6a"><path d="M 2.753906 8.035156 L 132.691406 8.035156 L 132.691406 136.464844 L 2.753906 136.464844 Z M 2.753906 8.035156 " clip-rule="nonzero"/></clipPath><clipPath id="1739a12df8"><path d="M 32.703125 8.035156 L 102.710938 8.035156 C 110.652344 8.035156 118.269531 11.1875 123.886719 16.804688 C 129.503906 22.421875 132.65625 30.039062 132.65625 37.984375 L 132.65625 106.519531 C 132.65625 114.460938 129.503906 122.078125 123.886719 127.695312 C 118.269531 133.3125 110.652344 136.464844 102.710938 136.464844 L 32.703125 136.464844 C 24.757812 136.464844 17.140625 133.3125 11.523438 127.695312 C 5.910156 122.078125 2.753906 114.460938 2.753906 106.519531 L 2.753906 37.984375 C 2.753906 30.039062 5.910156 22.421875 11.523438 16.804688 C 17.140625 11.1875 24.757812 8.035156 32.703125 8.035156 Z M 32.703125 8.035156 " clip-rule="nonzero"/></clipPath><clipPath id="9863b570fe"><path d="M 2.753906 8.035156 L 133 8.035156 L 133 136.8125 L 2.753906 136.8125 Z M 2.753906 8.035156 " clip-rule="nonzero"/></clipPath><clipPath id="a17c607ab4"><path d="M 32.703125 8.035156 L 102.707031 8.035156 C 110.648438 8.035156 118.265625 11.1875 123.882812 16.804688 C 129.496094 22.421875 132.652344 30.039062 132.652344 37.980469 L 132.652344 106.515625 C 132.652344 114.457031 129.496094 122.074219 123.882812 127.691406 C 118.265625 133.304688 110.648438 136.460938 102.707031 136.460938 L 32.703125 136.460938 C 24.757812 136.460938 17.140625 133.304688 11.527344 127.691406 C 5.910156 122.074219 2.753906 114.457031 2.753906 106.515625 L 2.753906 37.980469 C 2.753906 30.039062 5.910156 22.421875 11.527344 16.804688 C 17.140625 11.1875 24.757812 8.035156 32.703125 8.035156 Z M 32.703125 8.035156 " clip-rule="nonzero"/></clipPath><clipPath id="6b8d88d1e9"><path d="M 0.324219 0 L 146 0 L 146 144.5 L 0.324219 144.5 Z M 0.324219 0 " clip-rule="nonzero"/></clipPath><clipPath id="768d371594"><path d="M 115 0 L 374.675781 0 L 374.675781 144.5 L 115 144.5 Z M 115 0 " clip-rule="nonzero"/></clipPath></defs><g clip-path="url(#44e6f5da6a)"><g clip-path="url(#1739a12df8)"><path fill="#2e2e2e" d="M 2.753906 8.035156 L 132.691406 8.035156 L 132.691406 136.464844 L 2.753906 136.464844 Z M 2.753906 8.035156 " fill-opacity="1" fill-rule="nonzero"/></g></g><g clip-path="url(#9863b570fe)"><g clip-path="url(#a17c607ab4)"><path stroke-linecap="butt" transform="matrix(0.748707, 0, 0, 0.748707, 2.754316, 8.034185)" fill="none" stroke-linejoin="miter" d="M 40.000712 0.00129724 L 133.50046 0.00129724 C 144.107289 0.00129724 154.28108 4.211682 161.783599 11.7142 C 169.286117 19.216719 173.496502 29.39051 173.496502 39.997339 L 173.496502 131.535371 C 173.496502 142.1422 169.286117 152.315991 161.783599 159.81851 C 154.28108 167.315811 144.107289 171.531413 133.50046 171.531413 L 40.000712 171.531413 C 29.388666 171.531413 19.214875 167.315811 11.717573 159.81851 C 4.215055 152.315991 -0.000546879 142.1422 -0.000546879 131.535371 L -0.000546879 39.997339 C -0.000546879 29.39051 4.215055 19.216719 11.717573 11.7142 C 19.214875 4.211682 29.388666 0.00129724 40.000712 0.00129724 Z M 40.000712 0.00129724 " stroke="#ffffff" stroke-width="20" stroke-opacity="1" stroke-miterlimit="4"/></g></g><g fill="#635bff" fill-opacity="1"><g transform="translate(37.433137, 118.556884)"><g><path d="M 79.375 -83.921875 L 50.328125 -27.734375 L 50.328125 0 L 29.890625 0 L 29.890625 -27.734375 L 0.84375 -83.921875 L 24.03125 -83.921875 L 40.28125 -48.78125 L 56.421875 -83.921875 Z M 79.375 -83.921875 "/></g></g></g><g clip-path="url(#6b8d88d1e9)"><path stroke-linecap="butt" transform="matrix(0.748707, 0, 0, 0.748707, -0.235406, 16.501594)" fill="none" stroke-linejoin="miter" d="M 143.201408 18.92634 L 104.379262 93.967184 L 104.379262 130.999785 L 77.087414 130.999785 L 77.087414 93.967184 L 38.30179 18.92634 L 69.256203 18.92634 L 90.965509 65.861432 L 112.523513 18.92634 Z M 143.201408 18.92634 " stroke="#ffffff" stroke-width="8.981944" stroke-opacity="1" stroke-miterlimit="4"/></g><g fill="#ffffff" fill-opacity="1"><g transform="translate(148.518733, 102.44805)"><g><path d="M 59.734375 -60.421875 L 38.484375 -19.203125 L 38.484375 0 L 21.59375 0 L 21.59375 -19.203125 L 0.34375 -60.421875 L 19.546875 -60.421875 L 30.171875 -37.109375 L 40.796875 -60.421875 Z M 59.734375 -60.421875 "/></g></g></g><g fill="#ffffff" fill-opacity="1"><g transform="translate(215.107855, 102.44805)"><g><path d="M 13.28125 -52.53125 C 10.3125 -52.53125 7.925781 -53.34375 6.125 -54.96875 C 4.320312 -56.601562 3.421875 -58.648438 3.421875 -61.109375 C 3.421875 -63.617188 4.320312 -65.703125 6.125 -67.359375 C 7.925781 -69.015625 10.3125 -69.84375 13.28125 -69.84375 C 16.195312 -69.84375 18.550781 -69.015625 20.34375 -67.359375 C 22.144531 -65.703125 23.046875 -63.617188 23.046875 -61.109375 C 23.046875 -58.648438 22.144531 -56.601562 20.34375 -54.96875 C 18.550781 -53.34375 16.195312 -52.53125 13.28125 -52.53125 Z M 21.59375 -48.078125 L 21.59375 0 L 4.796875 0 L 4.796875 -48.078125 Z M 21.59375 -48.078125 "/></g></g></g><g fill="#ffffff" fill-opacity="1"><g transform="translate(248.016956, 102.44805)"><g><path d="M 21.59375 -41.390625 C 22.90625 -43.617188 24.757812 -45.390625 27.15625 -46.703125 C 29.5625 -48.015625 32.394531 -48.671875 35.65625 -48.671875 C 39.476562 -48.671875 42.945312 -47.671875 46.0625 -45.671875 C 49.175781 -43.679688 51.632812 -40.828125 53.4375 -37.109375 C 55.238281 -33.390625 56.140625 -29.046875 56.140625 -24.078125 C 56.140625 -19.109375 55.238281 -14.753906 53.4375 -11.015625 C 51.632812 -7.273438 49.175781 -4.40625 46.0625 -2.40625 C 42.945312 -0.40625 39.476562 0.59375 35.65625 0.59375 C 32.394531 0.59375 29.578125 -0.0625 27.203125 -1.375 C 24.835938 -2.6875 22.96875 -4.457031 21.59375 -6.6875 L 21.59375 22.96875 L 4.796875 22.96875 L 4.796875 -48.078125 L 21.59375 -48.078125 Z M 39.078125 -24.078125 C 39.078125 -27.222656 38.234375 -29.664062 36.546875 -31.40625 C 34.867188 -33.15625 32.800781 -34.03125 30.34375 -34.03125 C 27.882812 -34.03125 25.8125 -33.140625 24.125 -31.359375 C 22.4375 -29.585938 21.59375 -27.160156 21.59375 -24.078125 C 21.59375 -20.941406 22.4375 -18.488281 24.125 -16.71875 C 25.8125 -14.945312 27.882812 -14.0625 30.34375 -14.0625 C 32.800781 -14.0625 34.867188 -14.957031 36.546875 -16.75 C 38.234375 -18.550781 39.078125 -20.992188 39.078125 -24.078125 Z M 39.078125 -24.078125 "/></g></g></g><g fill="#ffffff" fill-opacity="1"><g transform="translate(312.806386, 102.44805)"><g><path d="M 50.734375 -24.59375 C 50.734375 -23.28125 50.648438 -21.96875 50.484375 -20.65625 L 18.6875 -20.65625 C 18.851562 -18.03125 19.578125 -16.070312 20.859375 -14.78125 C 22.148438 -13.5 23.796875 -12.859375 25.796875 -12.859375 C 28.597656 -12.859375 30.597656 -14.113281 31.796875 -16.625 L 49.703125 -16.625 C 48.960938 -13.3125 47.519531 -10.351562 45.375 -7.75 C 43.238281 -5.15625 40.539062 -3.113281 37.28125 -1.625 C 34.019531 -0.144531 30.421875 0.59375 26.484375 0.59375 C 21.742188 0.59375 17.53125 -0.40625 13.84375 -2.40625 C 10.15625 -4.40625 7.269531 -7.257812 5.1875 -10.96875 C 3.101562 -14.6875 2.0625 -19.054688 2.0625 -24.078125 C 2.0625 -29.109375 3.085938 -33.46875 5.140625 -37.15625 C 7.203125 -40.84375 10.070312 -43.679688 13.75 -45.671875 C 17.4375 -47.671875 21.679688 -48.671875 26.484375 -48.671875 C 31.222656 -48.671875 35.421875 -47.703125 39.078125 -45.765625 C 42.734375 -43.828125 45.585938 -41.039062 47.640625 -37.40625 C 49.703125 -33.78125 50.734375 -29.507812 50.734375 -24.59375 Z M 33.59375 -28.796875 C 33.59375 -30.847656 32.90625 -32.457031 31.53125 -33.625 C 30.164062 -34.800781 28.453125 -35.390625 26.390625 -35.390625 C 24.335938 -35.390625 22.65625 -34.832031 21.34375 -33.71875 C 20.03125 -32.601562 19.171875 -30.960938 18.765625 -28.796875 Z M 33.59375 -28.796875 "/></g></g></g><g clip-path="url(#768d371594)"><path stroke-linecap="butt" transform="matrix(0.534893, 0, 0, 0.534893, 145.142224, 32.377128)" fill="none" stroke-linejoin="miter" d="M 117.98946 18.034108 L 78.247249 95.093979 L 78.247249 131.002184 L 46.676947 131.002184 L 46.676947 95.093979 L 6.934735 18.034108 L 42.850244 18.034108 L 62.72135 61.610325 L 82.592455 18.034108 Z M 155.643051 32.7786 C 150.085568 32.7786 145.630818 31.266906 142.264196 28.243518 C 138.897573 25.190919 137.217914 21.371519 137.217914 16.778014 C 137.217914 12.060361 138.897573 8.160629 142.264196 5.086121 C 145.630818 1.982402 150.085568 0.426891 155.643051 0.426891 C 161.090992 0.426891 165.501924 1.982402 168.861244 5.086121 C 172.227866 8.160629 173.907526 12.060361 173.907526 16.778014 C 173.907526 21.371519 172.227866 25.190919 168.861244 28.243518 C 165.501924 31.266906 161.090992 32.7786 155.643051 32.7786 Z M 171.16895 41.111173 L 171.16895 131.002184 L 139.759312 131.002184 L 139.759312 41.111173 Z M 232.695619 53.62829 C 235.149383 49.458352 238.618246 46.142849 243.102207 43.689086 C 247.586169 41.213413 252.880749 39.979228 258.978644 39.979228 C 266.128153 39.979228 272.605797 41.856066 278.426183 45.60974 C 284.261176 49.341506 288.869286 54.687206 292.228605 61.64684 C 295.595228 68.584565 297.274888 76.690749 297.274888 85.979998 C 297.274888 95.261945 295.595228 103.411946 292.228605 110.4227 C 288.869286 117.411545 284.261176 122.786457 278.426183 126.540131 C 272.605797 130.271897 266.128153 132.134129 258.978644 132.134129 C 252.880749 132.134129 247.61538 130.907247 243.182539 128.460786 C 238.742395 125.97781 235.251624 122.669611 232.695619 118.521581 L 232.695619 173.950355 L 201.285981 173.950355 L 201.285981 41.111173 L 232.695619 41.111173 Z M 265.397866 85.979998 C 265.397866 80.108492 263.820446 75.544199 260.665607 72.28712 C 257.510767 69.03004 253.632944 67.394197 249.046743 67.394197 C 244.453238 67.394197 240.582718 69.051949 237.427878 72.367451 C 234.273039 75.675651 232.695619 80.210732 232.695619 85.979998 C 232.695619 91.844202 234.273039 96.437706 237.427878 99.745906 C 240.582718 103.061408 244.453238 104.711857 249.046743 104.711857 C 253.632944 104.711857 257.510767 103.032197 260.665607 99.665574 C 263.820446 96.306255 265.397866 91.741962 265.397866 85.979998 Z M 408.307704 85.001414 C 408.307704 87.477086 408.154344 89.938153 407.84032 92.391917 L 348.387666 92.391917 C 348.694386 97.292142 350.05272 100.958182 352.455364 103.382735 C 354.879916 105.785378 357.954424 106.983049 361.68619 106.983049 C 366.922347 106.983049 370.668718 104.624222 372.910699 99.899266 L 406.394352 99.899266 C 404.984899 106.106705 402.275534 111.649582 398.258957 116.527898 C 394.27159 121.377003 389.225308 125.196404 383.12011 127.986099 C 377.044123 130.753887 370.325484 132.134129 362.971495 132.134129 C 354.105812 132.134129 346.218714 130.271897 339.3102 126.540131 C 332.423595 122.786457 327.026775 117.440757 323.112437 110.503032 C 319.227311 103.543398 317.284748 95.364185 317.284748 85.979998 C 317.284748 76.588509 319.205402 68.453113 323.039409 61.566508 C 326.895323 54.657994 332.270235 49.341506 339.15684 45.60974 C 346.065354 41.856066 354.003572 39.979228 362.971495 39.979228 C 371.84448 39.979228 379.687761 41.804945 386.523246 45.45638 C 393.358732 49.078603 398.689826 54.278245 402.523832 61.06261 C 406.379747 67.839672 408.307704 75.821708 408.307704 85.001414 Z M 376.277322 77.172739 C 376.277322 73.316824 374.984714 70.293436 372.399498 68.102576 C 369.843494 65.911715 366.652141 64.816285 362.818135 64.816285 C 358.96222 64.816285 355.807381 65.860595 353.353617 67.941913 C 350.899853 70.030533 349.300525 73.105041 348.541026 77.172739 Z M 376.277322 77.172739 " stroke="#2e2e2e" stroke-width="11.015675" stroke-opacity="1" stroke-miterlimit="4"/></g></svg>